HIERARCHY
ROOT Junyuan_V1:Solving:Hips
{
	OFFSET 0.000000 0.000000 0.000000
	CHANNELS 6 Xposition Yposition Zposition Xrotation Yrotation Zrotation
	JOINT Junyuan_V1:Solving:Spine
	{
		OFFSET 0.000000 -11.180205 2.228564
		CHANNELS 6 Xposition Yposition Zposition Xrotation Yrotation Zrotation
		JOINT Junyuan_V1:Solving:Spine1
		{
			OFFSET 0.000000 -8.682996 1.531049
			CHANNELS 6 Xposition Yposition Zposition Xrotation Yrotation Zrotation
			JOINT Junyuan_V1:Solving:Spine2
			{
				OFFSET 0.000000 -8.783394 0.768450
				CHANNELS 6 Xposition Yposition Zposition Xrotation Yrotation Zrotation
				JOINT Junyuan_V1:Solving:Spine3
				{
					OFFSET 0.000000 -8.816944 0.000000
					CHANNELS 6 Xposition Yposition Zposition Xrotation Yrotation Zrotation
					JOINT Junyuan_V1:Solving:Neck
					{
						OFFSET 0.000000 -11.336071 -1.133605
						CHANNELS 6 Xposition Yposition Zposition Xrotation Yrotation Zrotation
						JOINT Junyuan_V1:Solving:Neck1
						{
							OFFSET 0.000000 -7.643246 -0.668695
							CHANNELS 6 Xposition Yposition Zposition Xrotation Yrotation Zrotation
							JOINT Junyuan_V1:Solving:Head
							{
								OFFSET 0.000000 -7.555870 -1.332303
								CHANNELS 6 Xposition Yposition Zposition Xrotation Yrotation Zrotation
								JOINT Junyuan_V1:Solving:HeadEnd
								{
									OFFSET 0.000000 -9.728081 0.000002
									CHANNELS 6 Xposition Yposition Zposition Xrotation Yrotation Zrotation
									End Site
									{
										OFFSET 0.000000 -9.728081 0.000002
									}
								}
							}
						}
					}
					JOINT Junyuan_V1:Solving:RightShoulder
					{
						OFFSET 0.000000 -8.097195 -5.270916
						CHANNELS 6 Xposition Yposition Zposition Xrotation Yrotation Zrotation
						JOINT Junyuan_V1:Solving:RightArm
						{
							OFFSET -20.762394 -0.000008 0.000000
							CHANNELS 6 Xposition Yposition Zposition Xrotation Yrotation Zrotation
							JOINT Junyuan_V1:Solving:RightForeArm
							{
								OFFSET -29.048946 -0.000008 0.000000
								CHANNELS 6 Xposition Yposition Zposition Xrotation Yrotation Zrotation
								JOINT Junyuan_V1:Solving:RightHand
								{
									OFFSET -22.031235 -0.000008 0.000000
									CHANNELS 6 Xposition Yposition Zposition Xrotation Yrotation Zrotation
									JOINT Junyuan_V1:Solving:RightHandThumb1
									{
										OFFSET -3.579254 2.890213 -2.661497
										CHANNELS 6 Xposition Yposition Zposition Xrotation Yrotation Zrotation
										End Site
										{
											OFFSET -5.229485 0.000000 -5.277840
										}
									}
									JOINT Junyuan_V1:Solving:RightHandMiddle1
									{
										OFFSET -9.544678 -0.000004 0.061184
										CHANNELS 6 Xposition Yposition Zposition Xrotation Yrotation Zrotation
										End Site
										{
											OFFSET -7.429878 -0.000004 0.000000
										}
									}
								}
							}
						}
					}
					JOINT Junyuan_V1:Solving:LeftShoulder
					{
						OFFSET 0.000000 -8.097195 -5.270916
						CHANNELS 6 Xposition Yposition Zposition Xrotation Yrotation Zrotation
						JOINT Junyuan_V1:Solving:LeftArm
						{
							OFFSET 20.762394 -0.000008 0.000000
							CHANNELS 6 Xposition Yposition Zposition Xrotation Yrotation Zrotation
							JOINT Junyuan_V1:Solving:LeftForeArm
							{
								OFFSET 29.048946 -0.000008 0.000000
								CHANNELS 6 Xposition Yposition Zposition Xrotation Yrotation Zrotation
								JOINT Junyuan_V1:Solving:LeftHand
								{
									OFFSET 22.031235 -0.000008 0.000000
									CHANNELS 6 Xposition Yposition Zposition Xrotation Yrotation Zrotation
									JOINT Junyuan_V1:Solving:LeftHandThumb1
									{
										OFFSET 3.579254 2.890213 -2.661497
										CHANNELS 6 Xposition Yposition Zposition Xrotation Yrotation Zrotation
										End Site
										{
											OFFSET 5.229485 0.000000 -5.277840
										}
									}
									JOINT Junyuan_V1:Solving:LeftHandMiddle1
									{
										OFFSET 9.544678 -0.000004 0.061184
										CHANNELS 6 Xposition Yposition Zposition Xrotation Yrotation Zrotation
										End Site
										{
											OFFSET 7.429878 -0.000004 0.000000
										}
									}
								}
							}
						}
					}
				}
			}
		}
	}
	JOINT Junyuan_V1:Solving:RightUpLeg
	{
		OFFSET -10.825166 0.000000 0.000000
		CHANNELS 6 Xposition Yposition Zposition Xrotation Yrotation Zrotation
		JOINT Junyuan_V1:Solving:RightLeg
		{
			OFFSET 0.000000 43.678444 -0.000006
			CHANNELS 6 Xposition Yposition Zposition Xrotation Yrotation Zrotation
			JOINT Junyuan_V1:Solving:RightFoot
			{
				OFFSET 0.000000 36.488441 -0.000006
				CHANNELS 6 Xposition Yposition Zposition Xrotation Yrotation Zrotation
				JOINT Junyuan_V1:Solving:RightForeFoot
				{
					OFFSET 0.000000 3.967834 -0.000000
					CHANNELS 6 Xposition Yposition Zposition Xrotation Yrotation Zrotation
					JOINT Junyuan_V1:Solving:RightToeBase
					{
						OFFSET 0.000000 0.000000 -15.539299
						CHANNELS 6 Xposition Yposition Zposition Xrotation Yrotation Zrotation
						JOINT Junyuan_V1:Solving:RightToeBaseEnd
						{
							OFFSET 0.000000 0.000000 -3.486985
							CHANNELS 6 Xposition Yposition Zposition Xrotation Yrotation Zrotation
							End Site
							{
								OFFSET 0.000000 -3.486992 0.000000
							}
						}
					}
				}
			}
		}
	}
	JOINT Junyuan_V1:Solving:LeftUpLeg
	{
		OFFSET 10.825166 0.000000 0.000000
		CHANNELS 6 Xposition Yposition Zposition Xrotation Yrotation Zrotation
		JOINT Junyuan_V1:Solving:LeftLeg
		{
			OFFSET 0.000000 43.678444 -0.000006
			CHANNELS 6 Xposition Yposition Zposition Xrotation Yrotation Zrotation
			JOINT Junyuan_V1:Solving:LeftFoot
			{
				OFFSET 0.000000 36.488441 -0.000006
				CHANNELS 6 Xposition Yposition Zposition Xrotation Yrotation Zrotation
				JOINT Junyuan_V1:Solving:LeftForeFoot
				{
					OFFSET 0.000000 3.967834 -0.000000
					CHANNELS 6 Xposition Yposition Zposition Xrotation Yrotation Zrotation
					JOINT Junyuan_V1:Solving:LeftToeBase
					{
						OFFSET 0.000000 0.000000 -15.539299
						CHANNELS 6 Xposition Yposition Zposition Xrotation Yrotation Zrotation
						JOINT Junyuan_V1:Solving:LeftToeBaseEnd
						{
							OFFSET 0.000000 0.000000 -3.974441
							CHANNELS 6 Xposition Yposition Zposition Xrotation Yrotation Zrotation
							End Site
							{
								OFFSET 0.000000 -3.974442 0.000000
							}
						}
					}
				}
			}
		}
	}
}
MOTION
Frames: 4
Frame Time: 0.041667
-62.833004 -34.110123 -87.652199 75.439576 -179.820876 0.212414 -0.000005 -11.180215 2.228562 15.327628 0.719820 4.239749 -0.000007 -8.682992 1.531057 1.249751 -0.208958 0.662296 -0.000002 -8.783396 0.768446 0.003846 -2.673707 0.762691 0.000009 -8.816951 0.000008 0.007136 0.141885 -0.417016 0.000014 -11.336071 -1.133583 -16.783663 -2.999867 0.936134 0.000006 -7.643262 -0.668698 6.829951 1.555342 -0.615763 -0.000008 -7.555910 -1.332297 14.288495 0.095823 -0.561246 -0.000014 -9.728088 0.000016 0.000002 0.000000 0.000001 0.000014 -8.097176 -5.270894 -0.000002 16.335500 13.990361 -20.762398 -0.000006 0.000009 -19.241299 -35.523565 -99.298287 -29.048922 -0.000016 -0.000005 -11.570035 -34.689288 -6.645826 -22.031221 -0.000009 -0.000009 1.556057 -4.522979 19.007844 -3.579257 2.890206 -2.661503 0.000005 -0.000010 0.000006 -9.544693 -0.000004 0.061180 0.000007 0.000007 0.000000 0.000014 -8.097176 -5.270894 -0.000003 -17.284755 -14.613897 20.762400 -0.000012 0.000003 -28.181869 42.777212 97.438079 29.048983 -0.000013 -0.000005 -32.374403 29.011000 17.091153 22.031256 -0.000004 -0.000004 -0.318235 -1.681226 -10.719689 3.579274 2.890210 -2.661477 0.000002 0.000005 -0.000003 9.544679 0.000007 0.061195 0.000001 -0.000003 0.000001 -10.825170 -0.000011 -0.000003 -27.866060 20.723106 14.064488 0.000001 43.678440 -0.000002 13.349057 0.000003 0.000000 0.000009 36.488434 0.000002 6.992482 17.852569 -4.920845 0.000001 3.967827 0.000005 0.000001 -0.000001 -0.000000 0.000008 -0.000001 -15.539297 7.264454 -0.000002 -0.000001 0.000008 -0.000008 -3.486984 -0.000001 0.000005 -0.000001 10.825166 -0.000011 0.000004 -26.884181 -12.658682 -6.546358 -0.000002 43.678444 0.000007 15.338692 0.000000 0.000001 0.000008 36.488434 -0.000006 5.788621 2.532304 3.267262 0.000005 3.967819 0.000005 0.000001 -0.000002 0.000000 -0.000010 0.000001 -15.539290 -1.498774 -0.000002 -0.000000 -0.000020 0.000000 -3.974445 0.000001 -0.000000 0.000000 
-62.494282 -33.816917 -87.574600 74.762554 -180.368043 0.428552 -0.000000 -11.180222 2.228568 15.376557 0.637299 3.953895 0.000001 -8.682992 1.531049 1.282497 -0.188070 0.601755 0.000004 -8.783401 0.768450 0.068810 -2.616041 0.675674 0.000009 -8.816919 0.000002 0.005425 0.131283 -0.350368 0.000009 -11.336048 -1.133606 -16.988438 -3.000288 1.020544 -0.000003 -7.643277 -0.668692 6.786425 1.634979 -0.605541 0.000008 -7.555890 -1.332304 14.260474 0.099110 -0.531733 -0.000004 -9.728081 0.000012 -0.000006 0.000000 0.000001 -0.000007 -8.097179 -5.270910 -0.000014 16.126481 13.993845 -20.762386 -0.000040 -0.000002 -19.749878 -35.325752 -99.189476 -29.048958 -0.000013 -0.000004 -12.873869 -34.485755 -7.373411 -22.031221 -0.000003 -0.000017 1.555804 -4.574107 18.807966 -3.579258 2.890213 -2.661482 0.000009 0.000002 0.000005 -9.544687 -0.000004 0.061200 -0.000001 0.000006 -0.000002 -0.000007 -8.097183 -5.270911 -0.000004 -17.042174 -14.523012 20.762392 0.000006 0.000005 -28.831455 42.411793 97.262447 29.048969 -0.000029 -0.000015 -32.938297 28.644184 17.253283 22.031239 -0.000032 0.000001 -0.343464 -1.800548 -10.801224 3.579236 2.890190 -2.661521 0.000003 -0.000002 -0.000004 9.544685 -0.000007 0.061163 0.000001 0.000001 0.000001 -10.825167 -0.000012 0.000004 -28.594331 21.283383 14.031630 0.000009 43.678448 -0.000011 12.869023 -0.000001 0.000001 -0.000001 36.488441 0.000008 8.985805 17.396347 -5.547876 0.000008 3.967827 -0.000008 -0.000000 0.000008 -0.000002 -0.000004 0.000022 -15.539303 7.336125 0.000005 -0.000002 0.000015 -0.000016 -3.486979 -0.000001 -0.000003 0.000003 10.825184 -0.000008 0.000005 -28.066234 -12.632039 -6.926234 -0.000011 43.678452 -0.000003 15.585720 -0.000002 0.000002 -0.000013 36.488419 -0.000007 5.765530 3.192515 3.861582 0.000013 3.967827 -0.000009 -0.000001 -0.000002 -0.000000 0.000017 0.000003 -15.539301 -1.902285 -0.000002 -0.000000 -0.000026 -0.000007 -3.974439 0.000000 0.000000 -0.000000 
-62.158852 -33.514729 -87.484444 74.104602 -180.900688 0.638977 -0.000016 -11.180205 2.228563 15.444487 0.567060 3.677589 0.000000 -8.682994 1.531052 1.352742 -0.165781 0.534173 0.000003 -8.783375 0.768449 0.125820 -2.564194 0.580125 0.000004 -8.816957 0.000008 -0.010315 0.116108 -0.286356 -0.000006 -11.336086 -1.133624 -17.211841 -3.019179 1.111578 0.000012 -7.643250 -0.668702 6.764662 1.716770 -0.585605 -0.000009 -7.555854 -1.332326 14.217363 0.104435 -0.512803 -0.000002 -9.728096 0.000024 0.000001 0.000000 -0.000000 -0.000004 -8.097202 -5.270932 -0.000006 15.908202 14.075364 -20.762379 -0.000018 0.000016 -20.351519 -35.161520 -99.115027 -29.048933 -0.000009 0.000003 -14.364228 -34.216027 -8.194451 -22.031225 -0.000011 0.000002 1.554570 -4.635245 18.563781 -3.579258 2.890214 -2.661504 0.000006 0.000007 0.000006 -9.544705 -0.000002 0.061180 0.000002 0.000002 0.000004 -0.000004 -8.097210 -5.270936 -0.000009 -16.866387 -14.441455 20.762398 0.000008 0.000006 -29.565205 42.074269 97.129976 29.048964 -0.000026 0.000001 -33.521599 28.285157 17.426919 22.031237 -0.000017 -0.000009 -0.386792 -2.014371 -10.871373 3.579276 2.890198 -2.661492 0.000007 -0.000005 -0.000001 9.544694 0.000000 0.061194 0.000003 -0.000002 0.000001 -10.825173 0.000012 -0.000003 -29.316425 21.762846 13.991182 0.000009 43.678455 -0.000002 12.514031 0.000003 0.000000 -0.000003 36.488419 0.000001 10.731390 17.270147 -6.304426 0.000004 3.967827 -0.000005 0.000000 0.000000 0.000000 -0.000012 -0.000006 -15.539302 7.824363 0.000000 -0.000001 -0.000000 -0.000008 -3.486982 -0.000000 0.000001 -0.000001 10.825168 -0.000005 0.000000 -29.227257 -12.723512 -7.303511 -0.000012 43.678421 -0.000000 15.846929 -0.000002 0.000000 -0.000015 36.488411 -0.000010 5.544067 3.870329 4.598317 -0.000001 3.967819 -0.000002 0.000001 0.000001 -0.000000 0.000000 -0.000007 -15.539300 -2.089308 -0.000000 -0.000000 0.000001 -0.000008 -3.974441 -0.000001 -0.000001 -0.000000 
-61.825714 -33.215302 -87.373932 73.486470 -181.404715 0.827068 -0.000010 -11.180216 2.228557 15.542220 0.513514 3.431359 0.000000 -8.682970 1.531056 1.447368 -0.146122 0.471939 0.000008 -8.783410 0.768449 0.172840 -2.532753 0.486425 -0.000006 -8.816965 0.000007 -0.033811 0.103787 -0.249469 0.000017 -11.336068 -1.133630 -17.395969 -3.046286 1.209817 -0.000003 -7.643256 -0.668694 6.723399 1.777711 -0.569577 -0.000002 -7.555886 -1.332310 14.138950 0.107210 -0.486164 0.000008 -9.728119 0.000003 -0.000001 0.000000 0.000001 0.000005 -8.097206 -5.270933 -0.000010 15.662990 14.236389 -20.762386 -0.000046 0.000016 -20.983168 -34.972860 -99.057366 -29.048946 -0.000019 0.000001 -15.799693 -33.932100 -8.975932 -22.031229 -0.000008 -0.000001 1.527688 -4.656557 18.186077 -3.579282 2.890201 -2.661499 0.000007 0.000010 0.000005 -9.544728 -0.000003 0.061192 0.000001 0.000004 -0.000006 0.000006 -8.097210 -5.270933 -0.000007 -16.627930 -14.444341 20.762413 -0.000003 0.000020 -30.260323 41.658055 97.031231 29.048967 -0.000011 0.000006 -34.159074 27.946938 17.640996 22.031214 -0.000007 0.000004 -0.432118 -2.234056 -10.949626 3.579262 2.890193 -2.661510 0.000006 -0.000002 0.000001 9.544686 -0.000018 0.061165 -0.000001 -0.000002 0.000001 -10.825172 -0.000002 -0.000006 -30.074706 22.253170 14.000785 -0.000001 43.678459 -0.000002 12.323017 0.000005 0.000001 0.000002 36.488445 -0.000008 11.576638 17.445138 -7.144390 -0.000005 3.967827 -0.000009 -0.000001 -0.000005 0.000001 -0.000007 -0.000009 -15.539298 11.747613 0.000007 -0.000002 0.000003 0.000008 -3.486981 0.000001 -0.000000 -0.000003 10.825163 0.000004 -0.000007 -30.334479 -12.921407 -7.684742 -0.000007 43.678455 0.000011 16.115802 -0.000000 0.000002 -0.000024 36.488449 -0.000003 5.121281 4.593259 5.637689 0.000004 3.967827 -0.000003 -0.000000 -0.000001 0.000000 0.000009 -0.000000 -15.539304 -2.035602 -0.000001 0.000000 0.000006 -0.000008 -3.974429 0.000000 0.000000 0.000000 
